<svg width="69" height="55" viewBox="0 0 69 55" fill="none" xmlns="http://www.w3.org/2000/svg">
<path d="M68.7021 0.769531H0.164062V54.8575H68.7021V0.769531Z" fill="black"/>
<path d="M2.44291 48.3945C2.01896 48.3945 1.701 48.5192 1.47137 48.7507C1.24173 48.9823 1.13574 49.3384 1.13574 49.7659V52.651C1.13574 53.0963 1.24173 53.4347 1.47137 53.6662C1.701 53.9155 2.01896 54.0224 2.44291 54.0224C2.86686 54.0224 3.18482 53.8977 3.41445 53.6662C3.64409 53.4169 3.75008 53.0785 3.75008 52.651V49.7659C3.75008 49.3206 3.64409 48.9823 3.41445 48.7507C3.18482 48.5014 2.86686 48.3945 2.44291 48.3945ZM2.88452 52.7045C2.88452 53.0607 2.74321 53.2388 2.44291 53.2388C2.14261 53.2388 2.0013 53.0607 2.0013 52.7045V49.7124C2.0013 49.3563 2.14261 49.1782 2.44291 49.1782C2.74321 49.1782 2.88452 49.3563 2.88452 49.7124V52.7045Z" fill="white"/>
<path d="M5.53462 48.3945C5.12834 48.3945 4.81038 48.5192 4.58074 48.7507C4.36877 48.9823 4.24512 49.3384 4.24512 49.7837V52.6689C4.24512 53.1141 4.3511 53.4525 4.58074 53.7018C4.79272 53.9334 5.11067 54.058 5.53462 54.058C5.95857 54.058 6.27653 53.9334 6.4885 53.7018C6.70048 53.4703 6.82413 53.1141 6.82413 52.6689V50.8701H5.58761V51.6537H6.01156V52.7223C6.01156 53.0785 5.87024 53.2566 5.56995 53.2566C5.26965 53.2566 5.12834 53.0785 5.12834 52.7223V49.7125C5.12834 49.3563 5.26965 49.1782 5.56995 49.1782C5.87024 49.1782 6.01156 49.3563 6.01156 49.7125V50.2289H6.82413V49.7659C6.82413 49.3206 6.71814 48.9823 6.4885 48.7329C6.27653 48.5014 5.95857 48.3945 5.53462 48.3945Z" fill="white"/>
<path d="M9.29652 51.7596H9.27885L8.44862 48.4648H7.37109V53.9502H8.13066V49.9431H8.14833L9.17287 53.9502H10.0561V48.4648H9.29652V51.7596Z" fill="white"/>
<path d="M11.5579 48.4648H10.6924V53.9502H11.5579V48.4648Z" fill="white"/>
<path d="M14.6311 48.3945C14.2248 48.3945 13.9069 48.5192 13.6949 48.7507C13.4829 48.9823 13.377 49.3206 13.377 49.7481V52.7045C13.377 53.1319 13.4829 53.4703 13.6949 53.7018C13.9069 53.9334 14.2248 54.058 14.6311 54.058C15.0374 54.058 15.3554 53.9334 15.5673 53.7018C15.7793 53.4703 15.8853 53.1319 15.8853 52.7045V51.9209H15.0727V52.7579C15.0727 53.0963 14.9314 53.2566 14.6488 53.2566C14.3662 53.2566 14.2248 53.0963 14.2248 52.7579V49.6946C14.2248 49.3563 14.3662 49.1782 14.6488 49.1782C14.9314 49.1782 15.0727 49.3563 15.0727 49.6946V50.3358H15.8853V49.7481C15.8853 49.3206 15.7793 48.9823 15.5673 48.7507C15.3554 48.5014 15.0551 48.3945 14.6311 48.3945Z" fill="white"/>
<path d="M17.6704 48.3945C17.2465 48.3945 16.9285 48.5192 16.6989 48.7507C16.4693 48.9823 16.3633 49.3384 16.3633 49.7659V52.651C16.3633 53.0963 16.4693 53.4347 16.6989 53.6662C16.9285 53.9155 17.2465 54.0224 17.6704 54.0224C18.0944 54.0224 18.4124 53.8977 18.642 53.6662C18.8716 53.4169 18.9776 53.0785 18.9776 52.651V49.7659C18.9776 49.3206 18.8716 48.9823 18.642 48.7507C18.4124 48.5014 18.0944 48.3945 17.6704 48.3945ZM18.1121 52.7045C18.1121 53.0607 17.9707 53.2388 17.6704 53.2388C17.3702 53.2388 17.2288 53.0607 17.2288 52.7045V49.7124C17.2288 49.3563 17.3702 49.1782 17.6704 49.1782C17.9707 49.1782 18.1121 49.3563 18.1121 49.7124V52.7045Z" fill="white"/>
<path d="M21.0079 50.8879C20.7253 50.6386 20.531 50.4248 20.425 50.2646C20.319 50.0865 20.266 49.9084 20.266 49.7125C20.266 49.3563 20.4073 49.196 20.69 49.196C20.8313 49.196 20.9373 49.2316 21.0079 49.3206C21.0786 49.4097 21.1139 49.5522 21.1139 49.7303V50.0152H21.9265V49.7837C21.9265 49.3384 21.8205 49.0001 21.6085 48.7507C21.3966 48.5192 21.0963 48.3945 20.6723 48.3945C20.266 48.3945 19.9481 48.5192 19.7184 48.7507C19.5065 48.9823 19.3828 49.3206 19.3828 49.7659C19.3828 50.0865 19.4535 50.3714 19.5948 50.6207C19.7361 50.8701 19.9834 51.155 20.3367 51.4756C20.6193 51.725 20.8136 51.9387 20.9196 52.099C21.0256 52.2771 21.0786 52.473 21.0786 52.7045C21.0786 52.9004 21.0433 53.0429 20.9726 53.1319C20.902 53.221 20.7783 53.2566 20.637 53.2566C20.3367 53.2566 20.1954 53.0785 20.1954 52.7223V52.3483H19.3828V52.6689C19.3828 53.1141 19.4888 53.4525 19.7008 53.7018C19.9127 53.9334 20.2307 54.058 20.637 54.058C21.0609 54.058 21.3789 53.9334 21.5909 53.7018C21.8205 53.4525 21.9265 53.1141 21.9265 52.6689C21.9265 52.3305 21.8558 52.0277 21.7322 51.7606C21.6085 51.4756 21.3612 51.1907 21.0079 50.8879Z" fill="white"/>
<path d="M23.0756 48.4648L22.1924 53.9502H22.9873L23.1463 52.8817H24.1178V52.8638L24.2768 53.9502H25.1423L24.2591 48.4648H23.0756ZM23.2346 52.1336L23.6055 49.4088H23.6232L24.0118 52.1336H23.2346Z" fill="white"/>
<path d="M28.7106 51.7596H28.6929L27.8627 48.4648H26.7852V53.9502H27.5447V49.9431H27.5624L28.5869 53.9502H29.4702V48.4648H28.7106V51.7596Z" fill="white"/>
<path d="M30.7592 48.4648L29.876 53.9502H30.6709L30.8299 52.8817H31.8014V52.8638L31.9604 53.9502H32.8083L31.925 48.4648H30.7592ZM30.9358 52.1336L31.3068 49.4088H31.3245L31.7131 52.1336H30.9358Z" fill="white"/>
<path d="M34.6631 50.8879C34.3805 50.6386 34.1862 50.4248 34.0802 50.2646C33.9742 50.0865 33.9212 49.9084 33.9212 49.7125C33.9212 49.3563 34.0625 49.196 34.3452 49.196C34.4865 49.196 34.5925 49.2316 34.6631 49.3206C34.7338 49.4097 34.7691 49.5522 34.7691 49.7303V50.0152H35.5817V49.7837C35.5817 49.3384 35.4757 49.0001 35.2637 48.7507C35.1047 48.5726 34.8928 48.4658 34.6278 48.4123C34.5395 48.3945 34.4335 48.3945 34.3275 48.3945C34.1685 48.3945 34.0095 48.4123 33.8682 48.448C33.6739 48.5014 33.4973 48.6082 33.3736 48.7507C33.1616 48.9823 33.0557 49.3206 33.0557 49.7659C33.0557 50.0865 33.1263 50.3714 33.2676 50.6207C33.409 50.8701 33.6563 51.155 34.0095 51.4756C34.2922 51.725 34.4865 51.9387 34.5925 52.099C34.6985 52.2771 34.7515 52.473 34.7515 52.7045C34.7515 52.9004 34.7161 53.0429 34.6455 53.1319C34.5748 53.221 34.4688 53.2566 34.3098 53.2566C34.0095 53.2566 33.8682 53.0785 33.8682 52.7223V52.3483H33.0557V52.6689C33.0557 53.1141 33.1616 53.4525 33.3736 53.7018C33.5856 53.9334 33.9036 54.058 34.3098 54.058C34.7338 54.058 35.0518 53.9334 35.2637 53.7018C35.4934 53.4525 35.5994 53.1141 35.5994 52.6689C35.5994 52.3305 35.5287 52.0277 35.405 51.7606C35.2637 51.4756 35.0164 51.1907 34.6631 50.8879Z" fill="white"/>
<path d="M37.3128 48.3945C36.9065 48.3945 36.5885 48.5192 36.3766 48.7507C36.1646 48.9823 36.0586 49.3206 36.0586 49.7481V52.7045C36.0586 53.1319 36.1646 53.4703 36.3766 53.7018C36.5885 53.9334 36.9065 54.058 37.3128 54.058C37.719 54.058 38.037 53.9334 38.249 53.7018C38.4609 53.4703 38.5669 53.1319 38.5669 52.7045V51.9209H37.7544V52.7579C37.7544 53.0963 37.6131 53.2566 37.3304 53.2566C37.0478 53.2566 36.9065 53.0963 36.9065 52.7579V49.6946C36.9065 49.3563 37.0478 49.1782 37.3304 49.1782C37.6131 49.1782 37.7544 49.3563 37.7544 49.6946V50.3358H38.5669V49.7481C38.5669 49.3206 38.4609 48.9823 38.249 48.7507C38.0193 48.5014 37.719 48.3945 37.3128 48.3945Z" fill="white"/>
<path d="M39.0791 53.9502H41.4108V53.1666H39.927V51.4925H41.1105V50.7089H39.927V49.2485H41.4108V48.4648H39.0791V53.9502Z" fill="white"/>
<path d="M44.4488 48.4648H43.1416V53.9502H44.4488C44.8727 53.9502 45.1907 53.8256 45.4026 53.6118C45.6146 53.3803 45.7206 53.0419 45.7206 52.5967V49.8184C45.7206 49.3731 45.6146 49.0348 45.4026 48.8032C45.2083 48.5717 44.8904 48.4648 44.4488 48.4648ZM44.8727 52.6323C44.8727 52.8282 44.8374 52.9529 44.7667 53.0419C44.6961 53.131 44.5901 53.1666 44.4488 53.1666H44.0072V49.2485H44.4488C44.5901 49.2485 44.6961 49.2841 44.7667 49.3731C44.8374 49.4622 44.8727 49.5869 44.8727 49.7828V52.6323Z" fill="white"/>
<path d="M46.9574 48.4648L46.0742 53.9502H46.8691L47.0281 52.8817H47.9996V52.8638L48.1586 53.9502H49.0242L48.141 48.4648H46.9574ZM47.1164 52.1336L47.4874 49.4088H47.505L47.8937 52.1336H47.1164Z" fill="white"/>
<path d="M50.2787 48.4648H49.4131V53.9502H51.6742V53.1666H50.2787V48.4648Z" fill="white"/>
<path d="M55.2594 51.7596H55.2417L54.4115 48.4648H53.334V53.9502H54.0936V49.9431H54.1112L55.1357 53.9502H56.019V48.4648H55.2594V51.7596Z" fill="#F6C215"/>
<path d="M58.3511 52.7214C58.3511 52.9173 58.3158 53.0419 58.2452 53.131C58.1745 53.22 58.0685 53.2556 57.9272 53.2556C57.7859 53.2556 57.6799 53.22 57.6092 53.131C57.5386 53.0419 57.5032 52.9173 57.5032 52.7214V48.4648H56.6377V52.6501C56.6377 53.0954 56.7437 53.4337 56.9733 53.6831C57.1853 53.9146 57.5032 54.0393 57.9272 54.0393C58.3511 54.0393 58.6514 53.9146 58.8811 53.6831C59.093 53.4516 59.2167 53.0954 59.2167 52.6501V48.4648H58.3865V52.7214H58.3511Z" fill="#F6C215"/>
<path d="M60.6477 48.4648H59.7998V53.9502H62.0609V53.1666H60.6477V48.4648Z" fill="#F6C215"/>
<path d="M63.3324 48.4648H62.4668V53.9502H64.7279V53.1666H63.3324V48.4648Z" fill="#F6C215"/>
<path d="M65.8412 48.4648L64.958 53.9502H65.7529L65.9119 52.8817H66.8834V52.8638L67.0424 53.9502H67.8903L67.0071 48.4648H65.8412ZM66.0002 52.1336L66.3712 49.4088H66.3888L66.7775 52.1336H66.0002Z" fill="#F6C215"/>
<path d="M66.7949 46.8965H67.9785V37.582L66.7949 41.1974V46.8965Z" fill="white"/>
<path d="M3.23804 3.96025H14.8436V1.60938H0.888672V16.6407H3.23804V3.96025Z" fill="white"/>
<path d="M48.9355 1.60938V3.96025H65.6285V31.6365H67.9778V1.60938H48.9355Z" fill="white"/>
<path d="M21.1851 46.5973L21.5031 44.5313H3.23804V33.2578H0.888672V46.9H21.1321L21.1851 46.5973Z" fill="white"/>
<path d="M37.2249 3.95852V1.58984H29.7705C30.2828 2.19537 30.5831 2.9968 30.6891 3.95852H37.2249Z" fill="white"/>
<path d="M25.9727 46.8982H26.3613L26.167 45.5625L25.9727 46.8982Z" fill="white"/>
<path d="M60.5586 46.8999H61.8128V44.5312H61.4948C61.3888 45.4574 61.0709 46.2588 60.5586 46.8999Z" fill="white"/>
<path d="M61.5137 40.2734L61.5674 40.3981V40.2734H61.5137Z" fill="white"/>
<path d="M18.3942 9.37439H21.1675V7.41533H18.3942V3.96025V3.56844H21.5562H21.9271V1.60938H21.5562H16.2568V3.96025V15.3763H18.3942V9.37439Z" fill="white"/>
<path d="M25.107 9.47953H25.8489C26.3435 9.47953 26.6968 9.6042 26.8911 9.85354C27.0855 10.1029 27.1914 10.5481 27.1914 11.1715V13.6826C27.1914 14.1991 27.2091 14.5553 27.2268 14.7512C27.2444 14.9471 27.2974 15.1608 27.3858 15.3745H29.2582H29.5761C29.4702 15.143 29.3995 14.8937 29.3818 14.6622C29.3465 14.4128 29.3465 14.1101 29.3465 13.7004V11.8482V11.2783C29.3465 10.4591 29.2405 9.81792 29.0285 9.33706C28.8166 8.8562 28.4456 8.53562 27.9334 8.37533V8.3219C28.8696 7.9479 29.3465 7.03961 29.3465 5.61483V4.75997C29.3465 4.47501 29.3288 4.20787 29.2935 3.95853C29.1875 3.28176 28.9579 2.74747 28.5869 2.37347C28.0747 1.85699 27.2798 1.58984 26.1669 1.58984H23.3583H22.9873V3.95853V4.99149V15.3745H25.1424V9.47953H25.107ZM25.107 3.56672H26.0786C26.4495 3.56672 26.7322 3.67358 26.9088 3.9051C26.9265 3.92291 26.9441 3.94072 26.9441 3.95853C27.0855 4.19006 27.1738 4.52844 27.1738 4.97368V6.04226C27.1738 6.55874 27.0678 6.93275 26.8558 7.16427C26.6438 7.3958 26.3259 7.50266 25.8843 7.50266H25.107V3.95853V3.56672Z" fill="white"/>
<path d="M40.5101 4.93978H40.5455L42.0999 15.3763H43.9017L45.4562 4.93978H45.4915V15.3763H47.5229V3.96025V1.60938H44.467L44.1313 3.96025L43.1068 11.4581H43.0538L42.0293 3.96025L41.6936 1.60938H38.6377V3.96025V15.3763H40.5101V4.93978Z" fill="white"/>
<path d="M4.26258 31.8294C5.32245 31.8294 6.13501 31.5444 6.70027 30.9923C6.91225 30.7786 7.07123 30.5293 7.21254 30.2443C7.42451 29.7813 7.5305 29.2114 7.5305 28.5524V27.377C7.5305 26.718 7.44218 26.1659 7.24787 25.7385C6.9829 25.1329 6.55896 24.7233 5.9407 24.5096V24.474C6.39998 24.2781 6.75326 23.9575 6.9829 23.5123C7.21254 23.067 7.31853 22.4971 7.31853 21.7847V21.2326C7.31853 20.164 7.07123 19.3626 6.55896 18.8461C6.04669 18.3296 5.25179 18.0625 4.13893 18.0625H3.23804H0.888672V31.8294H3.23804H4.26258ZM3.04373 20.0216H3.23804H4.06827C4.43922 20.0216 4.72186 20.1284 4.8985 20.3599C5.07514 20.5915 5.16347 20.9477 5.16347 21.4463V22.2122C5.16347 22.7286 5.05748 23.1026 4.84551 23.3342C4.63353 23.5657 4.31557 23.6725 3.87396 23.6725H3.23804H3.04373V20.0216ZM3.04373 29.8525V25.6138H3.23804H3.99761C4.49222 25.6138 4.84551 25.7385 5.05748 25.97C5.26945 26.2193 5.37544 26.6468 5.37544 27.2701V28.4633C5.37544 28.962 5.28712 29.3182 5.11047 29.5141C4.93383 29.71 4.6512 29.8169 4.26258 29.8169H3.23804H3.04373V29.8525Z" fill="white"/>
<path d="M11.8753 22.9805C10.8155 22.9805 10.0206 23.2832 9.45531 23.8888C9.04903 24.3162 8.80173 24.8861 8.67808 25.5807C8.62509 25.8478 8.60742 26.1328 8.60742 26.4534V30.5496V33.6841C8.60742 34.7883 8.89005 35.6432 9.45531 36.2487C10.0206 36.8542 10.8155 37.157 11.8753 37.157C12.9352 37.157 13.7301 36.8542 14.2954 36.2487C14.8606 35.6432 15.1433 34.7883 15.1433 33.6841V26.4356C15.1433 25.3314 14.8606 24.4765 14.2954 23.871C13.7301 23.2832 12.9352 22.9805 11.8753 22.9805ZM12.9882 33.8088C12.9882 34.7171 12.6172 35.1623 11.8753 35.1623C11.1334 35.1623 10.7625 34.7171 10.7625 33.8088V26.2931C10.7625 25.3848 11.1334 24.9395 11.8753 24.9395C12.6172 24.9395 12.9882 25.3848 12.9882 26.2931V33.8088Z" fill="white"/>
<path d="M18.1828 31.8294H20.3202V20.0216H21.8217H22.5283H22.5813V18.0625H22.5283H21.8217H15.9395V20.0216H18.1828V31.8294Z" fill="white"/>
<path d="M25.4778 31.8294H27.6328V31.6335V20.0216H29.258H29.8762V18.0625H29.258H23.9939H23.2874H23.2344V20.0216H23.2874H23.9939H25.4778V31.6335V31.8294Z" fill="white"/>
<path d="M31.5012 10.4066C31.1126 10.8162 30.8653 11.3505 30.7416 11.9916C30.6886 12.2944 30.6533 12.615 30.6533 12.9712V16.64V16.8003V20.2019C30.6533 20.665 30.7063 21.0746 30.7946 21.4486C30.936 21.9651 31.1656 22.4103 31.4836 22.7665C32.0488 23.372 32.8437 23.6748 33.9036 23.6748C34.9634 23.6748 35.7583 23.372 36.3236 22.7665C36.8889 22.161 37.1715 21.3061 37.1715 20.2019V12.9534C37.1715 11.8492 36.8889 10.9943 36.3236 10.3888C35.7583 9.78323 34.9634 9.48047 33.9036 9.48047C32.879 9.49828 32.0665 9.80105 31.5012 10.4066ZM35.0341 12.8287V20.3444C35.0341 21.2527 34.6632 21.6979 33.9212 21.6979C33.1793 21.6979 32.8084 21.2527 32.8084 20.3444V12.8287C32.8084 11.9204 33.1793 11.4752 33.9212 11.4752C34.6632 11.4752 35.0341 11.9204 35.0341 12.8287Z" fill="#F6C215"/>
<path d="M40.5101 31.6335V21.3929H40.5455L42.0823 31.6335L42.0999 31.8294H43.9017L43.937 31.6335L45.4562 21.3929H45.4915V31.6335V31.8294H45.8271H47.5229V31.6335V18.0625H44.467L43.1068 27.9112H43.0538L41.6936 18.0625H38.6377V31.6335V31.8294H40.5101V31.6335Z" fill="white"/>
<path d="M24.5586 46.8277L24.8942 44.5302L24.9472 44.1206H27.3849V44.085L27.4556 44.5302L27.7735 46.8277H29.9286L29.7696 45.8659L29.5576 44.5302L29.3633 43.2657L27.7382 33.2389L27.7029 33.043H24.7882L24.7529 33.2389L22.9335 44.5124L22.5625 46.8098H24.5586V46.8277ZM25.2122 42.2684L26.1484 35.4651H26.1837L27.1376 42.2684H25.2122Z" fill="white"/>
<path d="M35.0346 46.8956C35.5645 46.7531 36.0061 46.5038 36.3417 46.1298C36.7127 45.7201 36.96 45.1858 37.0837 44.5269C37.1013 44.4022 37.119 44.2776 37.1366 44.1351C37.1543 43.957 37.1543 43.7611 37.1543 43.5474V39.0415H37.1366H34.063V41.0184H35.1406V43.7076C35.1406 44.046 35.0876 44.3132 34.9816 44.5269C34.8049 44.8831 34.487 45.0434 34.0277 45.0434C33.5684 45.0434 33.2505 44.8653 33.0738 44.5269C32.9678 44.3132 32.9148 44.046 32.9148 43.7076V36.1742C32.9148 35.2659 33.2858 34.8206 34.0277 34.8206C34.7696 34.8206 35.1406 35.2659 35.1406 36.1742V37.4921H37.1366H37.1543V36.3166C37.1543 36.1207 37.1366 35.9248 37.1366 35.7289C37.0483 34.8919 36.7834 34.2329 36.3417 33.7342C35.7941 33.1465 34.9992 32.8438 33.957 32.8438C32.9148 32.8438 32.1199 33.1465 31.5723 33.7342C31.0247 34.322 30.7598 35.1946 30.7598 36.2988V43.1199V43.5295C30.7598 43.8857 30.7774 44.2063 30.8304 44.4913C30.9011 44.8297 30.9894 45.1502 31.1307 45.4174C31.2544 45.6667 31.3957 45.8804 31.5723 46.0763C31.908 46.4503 32.3496 46.6997 32.8795 46.8421C33.1975 46.9312 33.5508 46.9668 33.957 46.9668C34.3633 47.0202 34.7166 46.9846 35.0346 46.8956Z" fill="white"/>
<path d="M44.4134 46.8255V44.8486H44.2191H40.7039V44.528V40.6277H43.6539V38.6508H40.7039V35.0177H44.2191H44.4134V33.2545V33.0586H44.2191H38.5488V33.2545V35.6944V44.1718V44.528V46.8255H44.2191H44.4134Z" fill="white"/>
<path d="M50.4552 41.2867H50.4199L48.3885 33.2545L48.3355 33.0586H45.8271H45.6328V33.2545V36.4424V43.4238V44.528V46.8255H45.8271H47.5406V44.528V36.763H47.5936L49.572 44.528L50.1549 46.8255H52.363V44.528V33.0586H50.4552V41.2867Z" fill="white"/>
<path d="M60.153 43.6364V41.6952H58.1216V43.7967C58.1216 44.0995 58.0686 44.3488 57.9802 44.5269C57.8213 44.8831 57.5033 45.0434 57.044 45.0434C56.5848 45.0434 56.2668 44.8653 56.1078 44.5269C56.0195 44.331 55.9665 44.0995 55.9665 43.7967V36.1029C55.9665 35.2481 56.3198 34.8206 57.044 34.8206C57.7683 34.8206 58.1216 35.2481 58.1216 36.1029V37.688H60.153V36.2276C60.153 36.1742 60.153 36.1207 60.153 36.0851C60.1353 35.1234 59.888 34.3576 59.3934 33.8055C59.3757 33.7877 59.3581 33.7699 59.3404 33.7342C58.7928 33.1465 58.0156 32.8438 56.991 32.8438C55.9665 32.8438 55.1716 33.1465 54.6417 33.7342C54.0941 34.322 53.8291 35.159 53.8291 36.2276V43.6186C53.8291 43.9392 53.8468 44.2419 53.8998 44.5091C54.0057 45.168 54.253 45.7023 54.6417 46.112C54.9773 46.486 55.4012 46.7353 55.9312 46.8778C56.2491 46.9668 56.6024 47.0024 56.991 47.0024C57.3797 47.0024 57.7329 46.9668 58.0509 46.8778C58.5632 46.7353 59.0048 46.486 59.3404 46.112C59.7114 45.7023 59.9587 45.168 60.0823 44.5091C60.1353 44.2597 60.153 43.957 60.153 43.6364Z" fill="white"/>
<path d="M65.6288 33.9313L64.4277 38.1165H64.3923L62.9262 33.0586H60.6475L60.6651 33.112L61.5483 35.8369L63.2441 40.9661V44.528V46.8255H65.3815V44.528V40.9661L65.6288 40.2003L67.9782 33.0586H65.8938L65.6288 33.9313Z" fill="white"/>
</svg>
