<svg width="52" height="52" viewBox="0 0 52 52" fill="none" xmlns="http://www.w3.org/2000/svg">
<path d="M26 9.75C24.375 9.75 13.8125 9.75 13.8125 20.3125C13.8125 20.3125 13.8125 24.375 16.25 28.4375C18.6875 32.5 20.3125 32.5 20.3125 36.5625V39L21.9375 41.4375V47.9375L23.5625 49.5625H28.4375L30.0625 47.9375V41.4375L31.6875 39V36.5625C31.6875 32.5 33.3125 32.5 35.75 28.4375C38.1875 24.375 38.1875 20.3125 38.1875 20.3125C38.1875 9.75 27.625 9.75 26 9.75Z" fill="#F6C215"/>
<path d="M30.0625 41.4375V47.9375L28.4375 49.5625H23.5625L21.9375 47.9375V41.4375H30.0625Z" fill="#DADCDE"/>
<path d="M38.1875 49.5625C44.021 49.5625 48.75 44.8335 48.75 39C48.75 33.1665 44.021 28.4375 38.1875 28.4375C32.354 28.4375 27.625 33.1665 27.625 39C27.625 44.8335 32.354 49.5625 38.1875 49.5625Z" fill="black"/>
<path d="M38.1875 27.625C37.818 27.625 37.4529 27.6434 37.0924 27.6779C38.9761 23.9041 39 20.4711 39 20.3125C39 15.5928 36.9409 12.1421 33.0453 10.3334C31.0504 9.40713 28.6799 8.9375 26 8.9375C23.3201 8.9375 20.9497 9.40713 18.9547 10.3334C15.0591 12.1421 13 15.5928 13 20.3125C13 20.4876 13.029 24.6484 15.5533 28.8555C16.2102 29.9404 16.945 30.976 17.7521 31.9543C18.9159 33.409 19.5 34.1392 19.5 36.5625V39C19.5 39.1604 19.5475 39.3172 19.6365 39.4507L21.125 41.6835V47.9375C21.125 48.0442 21.146 48.1499 21.1868 48.2484C21.2277 48.347 21.2875 48.4366 21.363 48.512L22.988 50.137C23.0634 50.2125 23.153 50.2723 23.2516 50.3132C23.3501 50.354 23.4558 50.375 23.5625 50.375H28.4375C28.5442 50.375 28.6499 50.354 28.7484 50.3132C28.847 50.2723 28.9366 50.2125 29.012 50.137L30.637 48.512C30.7125 48.4366 30.7723 48.347 30.8132 48.2484C30.854 48.1499 30.875 48.0442 30.875 47.9375V47.7056C32.2752 48.8818 33.9383 49.703 35.7235 50.0996C37.5086 50.4962 39.363 50.4565 41.1295 49.9839C42.896 49.5112 44.5225 48.6195 45.871 47.3845C47.2196 46.1494 48.2504 44.6074 48.8761 42.8891C49.5019 41.1708 49.704 39.327 49.4654 37.514C49.2269 35.701 48.5546 33.9722 47.5057 32.4743C46.4568 30.9764 45.0622 29.7535 43.4401 28.9093C41.8179 28.0652 40.0161 27.6246 38.1875 27.625ZM19.021 30.9392C18.2591 30.018 17.5658 29.0421 16.9467 28.0195C14.6632 24.2136 14.625 20.3499 14.625 20.3125C14.625 16.2135 16.312 13.352 19.639 11.8072C21.418 10.9812 23.5582 10.5625 26 10.5625C28.4418 10.5625 30.582 10.9812 32.361 11.8072C35.688 13.352 37.375 16.2135 37.375 20.3113C37.375 20.3499 37.3368 24.2136 35.0533 28.0199C35.0423 28.0381 35.0309 28.0563 35.02 28.0746C32.2669 28.8792 29.9172 30.6898 28.4375 33.1469V28.1793C29.2757 28.0015 30.0695 27.6569 30.7717 27.1658C31.7906 26.4225 32.375 25.3873 32.375 24.3254C32.375 22.9645 31.3808 21.9375 30.0625 21.9375C29.0782 21.9375 27.7723 22.4671 27.1415 24.9905C26.9991 25.5787 26.9032 26.1772 26.8546 26.7805C26.5888 26.8008 26.3045 26.8125 26 26.8125C25.6955 26.8125 25.4109 26.8012 25.1454 26.7805C25.0968 26.1772 25.0009 25.5787 24.8585 24.9905C24.2277 22.4671 22.9218 21.9375 21.9375 21.9375C20.6192 21.9375 19.625 22.9641 19.625 24.3254C19.625 25.3873 20.2094 26.4225 21.2282 27.1658C21.9304 27.6568 22.7243 28.0015 23.5625 28.1793V40.625H22.3723L21.125 38.754V36.5625C21.125 33.5691 20.2425 32.466 19.021 30.9392ZM26.8125 40.625H25.1875V28.4117C25.7286 28.446 26.2714 28.446 26.8125 28.4117V40.625ZM28.5172 26.4785C28.6867 25.1516 29.1449 23.5625 30.0625 23.5625C30.7003 23.5625 30.75 24.1465 30.75 24.3254C30.75 24.5793 30.6586 25.2368 29.8142 25.853C29.4192 26.1314 28.981 26.3427 28.5172 26.4785ZM23.4855 26.4793C23.0206 26.3437 22.5813 26.1321 22.1855 25.853C21.3408 25.2368 21.2496 24.5794 21.2496 24.3254C21.2496 24.1465 21.2993 23.5625 21.9371 23.5625C22.8653 23.5625 23.3195 25.1398 23.4855 26.4793ZM28.101 48.75H23.899L22.75 47.601V45.5H24.375C24.5905 45.5 24.7972 45.4144 24.9495 45.262C25.1019 45.1096 25.1875 44.903 25.1875 44.6875C25.1875 44.472 25.1019 44.2654 24.9495 44.113C24.7972 43.9606 24.5905 43.875 24.375 43.875H22.75V42.25H27.2864C27.6333 43.4103 28.1639 44.5076 28.8581 45.5H27.625C27.4095 45.5 27.2028 45.5856 27.0505 45.738C26.8981 45.8904 26.8125 46.097 26.8125 46.3125C26.8125 46.528 26.8981 46.7346 27.0505 46.887C27.2028 47.0394 27.4095 47.125 27.625 47.125H29.25V47.601L28.101 48.75ZM38.1875 48.75C36.2591 48.75 34.3741 48.1782 32.7707 47.1068C31.1673 46.0355 29.9176 44.5127 29.1797 42.7312C28.4417 40.9496 28.2486 38.9892 28.6248 37.0979C29.001 35.2066 29.9296 33.4693 31.2932 32.1057C32.6568 30.7421 34.3941 29.8135 36.2854 29.4373C38.1767 29.0611 41.9187 29.9922 41.9187 29.9922C41.9187 29.9922 45.223 31.9798 46.2943 33.5832C47.3657 35.1866 47.9375 37.0716 47.9375 39C47.9346 41.585 46.9064 44.0632 45.0786 45.8911C43.2507 47.7189 40.7725 48.7471 38.1875 48.75Z" fill="black"/>
<path d="M26.8125 4.875V2.4375C26.8125 2.22201 26.7269 2.01535 26.5745 1.86298C26.4222 1.7106 26.2155 1.625 26 1.625C25.7845 1.625 25.5778 1.7106 25.4255 1.86298C25.2731 2.01535 25.1875 2.22201 25.1875 2.4375V4.875C25.1875 5.09049 25.2731 5.29715 25.4255 5.44952C25.5778 5.6019 25.7845 5.6875 26 5.6875C26.2155 5.6875 26.4222 5.6019 26.5745 5.44952C26.7269 5.29715 26.8125 5.09049 26.8125 4.875Z" fill="#F6C215"/>
<path d="M9.91343 8.76533C9.83798 8.68988 9.74841 8.63003 9.64983 8.58919C9.55125 8.54836 9.44559 8.52734 9.33889 8.52734C9.23219 8.52734 9.12653 8.54836 9.02795 8.58919C8.92937 8.63003 8.8398 8.68988 8.76435 8.76533C8.6889 8.84078 8.62905 8.93035 8.58822 9.02893C8.54738 9.12751 8.52637 9.23316 8.52637 9.33986C8.52637 9.44657 8.54738 9.55222 8.58822 9.6508C8.62905 9.74938 8.6889 9.83895 8.76435 9.9144L10.488 11.638C10.6403 11.7904 10.847 11.876 11.0625 11.876C11.278 11.876 11.4847 11.7904 11.637 11.638C11.7894 11.4856 11.875 11.279 11.875 11.0635C11.875 10.848 11.7894 10.6413 11.637 10.4889L9.91343 8.76533Z" fill="#F6C215"/>
<path d="M4.875 25.1875H2.4375C2.22201 25.1875 2.01535 25.2731 1.86298 25.4255C1.7106 25.5778 1.625 25.7845 1.625 26C1.625 26.2155 1.7106 26.4222 1.86298 26.5745C2.01535 26.7269 2.22201 26.8125 2.4375 26.8125H4.875C5.09049 26.8125 5.29715 26.7269 5.44952 26.5745C5.6019 26.4222 5.6875 26.2155 5.6875 26C5.6875 25.7845 5.6019 25.5778 5.44952 25.4255C5.29715 25.2731 5.09049 25.1875 4.875 25.1875Z" fill="#F6C215"/>
<path d="M10.488 40.363L8.76435 42.0866C8.61197 42.239 8.52637 42.4456 8.52637 42.6611C8.52637 42.8766 8.61197 43.0833 8.76435 43.2357C8.91673 43.3881 9.12339 43.4737 9.33889 43.4737C9.55438 43.4737 9.76105 43.3881 9.91343 43.2357L11.637 41.5121C11.7894 41.3597 11.875 41.153 11.875 40.9375C11.875 40.722 11.7894 40.5154 11.637 40.363C11.4847 40.2106 11.278 40.125 11.0625 40.125C10.847 40.125 10.6403 40.2106 10.488 40.363Z" fill="#F6C215"/>
<path d="M49.5625 25.1875H47.125C46.9095 25.1875 46.7028 25.2731 46.5505 25.4255C46.3981 25.5778 46.3125 25.7845 46.3125 26C46.3125 26.2155 46.3981 26.4222 46.5505 26.5745C46.7028 26.7269 46.9095 26.8125 47.125 26.8125H49.5625C49.778 26.8125 49.9847 26.7269 50.137 26.5745C50.2894 26.4222 50.375 26.2155 50.375 26C50.375 25.7845 50.2894 25.5778 50.137 25.4255C49.9847 25.2731 49.778 25.1875 49.5625 25.1875Z" fill="#F6C215"/>
<path d="M41.5121 11.638L43.2357 9.9144C43.3881 9.76203 43.4737 9.55536 43.4737 9.33986C43.4737 9.12437 43.3881 8.9177 43.2357 8.76533C43.0833 8.61295 42.8766 8.52734 42.6611 8.52734C42.4456 8.52734 42.239 8.61295 42.0866 8.76533L40.363 10.4889C40.2106 10.6413 40.125 10.848 40.125 11.0635C40.125 11.279 40.2106 11.4856 40.363 11.638C40.5154 11.7904 40.722 11.876 40.9375 11.876C41.153 11.876 41.3597 11.7904 41.5121 11.638Z" fill="#F6C215"/>
<path d="M41.6759 35.1755L35.8767 40.9747L34.8015 39.3618C34.7425 39.2724 34.6665 39.1955 34.5778 39.1356C34.4891 39.0757 34.3894 39.0339 34.2845 39.0126C34.1795 38.9913 34.0714 38.991 33.9664 39.0117C33.8613 39.0323 33.7614 39.0735 33.6723 39.1329C33.5832 39.1923 33.5068 39.2687 33.4473 39.3578C33.3879 39.4468 33.3466 39.5467 33.3259 39.6518C33.3052 39.7568 33.3054 39.8649 33.3266 39.9698C33.3478 40.0748 33.3896 40.1745 33.4495 40.2633L35.0745 42.7008C35.1411 42.8008 35.2292 42.8847 35.3322 42.9466C35.4353 43.0085 35.5508 43.0467 35.6704 43.0586C35.6972 43.0612 35.7238 43.0625 35.7506 43.0625C35.966 43.0625 36.1726 42.9769 36.325 42.8246L42.825 36.3246C42.9774 36.1722 43.063 35.9655 43.063 35.75C43.063 35.5345 42.9774 35.3279 42.825 35.1755C42.6726 35.0231 42.4659 34.9375 42.2505 34.9375C42.035 34.9375 41.8283 35.0231 41.6759 35.1755Z" fill="white"/>
</svg>
