<svg width="52" height="52" viewBox="0 0 52 52" fill="none" xmlns="http://www.w3.org/2000/svg">
<g clip-path="url(#clip0_107_779)">
<path d="M34.3481 34.9929L27.8483 28.4823C27.4259 28.0587 26.7399 28.0579 26.3163 28.4804C26.1126 28.6836 25.9981 28.9594 25.998 29.2471V44.424C25.9984 44.8901 26.2968 45.3037 26.739 45.451C26.8493 45.4883 26.9649 45.5073 27.0814 45.5073C27.4223 45.5073 27.7434 45.3468 27.948 45.074L34.4477 36.4077C34.7707 35.9768 34.7283 35.3742 34.3481 34.9929Z" fill="black"/>
<path d="M29.5906 32.5626L23.0909 30.396C22.5235 30.2063 21.9097 30.5125 21.72 31.0799C21.6456 31.3023 21.6454 31.5428 21.7194 31.7653L26.0526 44.7648C26.2002 45.2078 26.6149 45.5064 27.0817 45.5058H27.1489C27.6383 45.4753 28.0462 45.1199 28.1433 44.6392L30.3099 33.8063C30.419 33.2694 30.1103 32.7356 29.5906 32.5626Z" fill="black"/>
<path d="M51.5345 2.38305C51.1893 2.14165 50.7355 2.12225 50.371 2.33319L9.20608 26.1656C8.68853 26.4657 8.51223 27.1286 8.81233 27.6461C8.94497 27.8749 9.15672 28.0472 9.40757 28.1306L28.8634 34.6174L43.9861 41.0997C44.5363 41.3349 45.1729 41.0797 45.4081 40.5296C45.4407 40.4532 45.4644 40.3734 45.4788 40.2916L51.9786 3.45978C52.0525 3.04511 51.8793 2.62507 51.5345 2.38305Z" fill="#F6C215"/>
<path d="M51.7962 3.89976C52.1457 3.41421 52.0354 2.73722 51.5498 2.38765C51.1173 2.07638 50.5226 2.12584 50.1475 2.50445L21.8975 32.2992L30.0503 35.1157L51.7962 3.89976Z" fill="black"/>
<path d="M2.64707 42.6842C2.37499 42.6845 2.11287 42.5824 1.9126 42.3983C1.37241 41.9014 0.840853 41.3908 0.31803 40.8665C-0.10557 40.4435 -0.106077 39.7572 0.316913 39.3337C0.739904 38.9101 1.42613 38.9095 1.84973 39.3325C2.35235 39.8351 2.86369 40.327 3.38154 40.8036C3.8219 41.2086 3.85053 41.8939 3.44552 42.3343C3.24007 42.5576 2.95042 42.6845 2.64707 42.6842Z" fill="black"/>
<path d="M17.4057 49.8219C16.3619 49.8186 15.321 49.7104 14.2988 49.4991C13.7084 49.4026 13.3079 48.8457 13.4045 48.2552C13.501 47.6647 14.0579 47.2643 14.6484 47.3609C14.6765 47.3655 14.7045 47.3712 14.7322 47.378C15.614 47.56 16.5119 47.653 17.4122 47.6554H17.4187H17.9062C18.4707 47.6015 18.9722 48.0154 19.0262 48.58C19.0299 48.6191 19.0313 48.6583 19.0306 48.6975C19.0526 49.2951 18.5861 49.7975 17.9885 49.8198H17.4231L17.4057 49.8219ZM9.64288 47.7485C9.46942 47.7485 9.2986 47.707 9.14453 47.6272C8.07959 47.0699 7.05131 46.4454 6.06579 45.7574C5.58573 45.4004 5.486 44.7218 5.84297 44.2416C6.1837 43.7835 6.82139 43.6684 7.30074 43.9786C8.20837 44.617 9.15642 45.196 10.139 45.7119C10.6702 45.987 10.8779 46.6407 10.6028 47.172C10.4167 47.5315 10.0456 47.7572 9.64065 47.7572L9.64288 47.7485Z" fill="black"/>
<path d="M22.9759 48.659C22.3776 48.6639 21.8887 48.1829 21.8838 47.5847C21.8803 47.1473 22.1402 46.7506 22.5426 46.5792C23.1663 46.3124 23.772 46.0056 24.3561 45.6606C24.8787 45.3694 25.5384 45.5571 25.8296 46.0797C26.1106 46.5841 25.9466 47.2203 25.4566 47.526C24.7922 47.9187 24.1034 48.2683 23.3941 48.5724C23.2618 48.6287 23.1197 48.6582 22.9759 48.659Z" fill="black"/>
</g>
<defs>
<clipPath id="clip0_107_779">
<rect width="52" height="52" fill="white"/>
</clipPath>
</defs>
</svg>
