<svg width="46" height="46" viewBox="0 0 46 46" fill="none" xmlns="http://www.w3.org/2000/svg">
<path d="M22.7353 45.2255C35.118 45.2255 45.1566 35.1873 45.1566 22.8042C45.1566 10.4214 35.118 0.382812 22.7353 0.382812C10.3521 0.382812 0.313965 10.4214 0.313965 22.8042C0.313965 35.1873 10.3521 45.2255 22.7353 45.2255Z" fill="#F6C215"/>
<path d="M19.1058 32.8588C18.8448 32.8588 18.5867 32.8076 18.3455 32.7076C18.1047 32.6077 17.8858 32.4611 17.7016 32.2765L11.9197 26.4946C11.5472 26.1225 11.3378 25.6178 11.3374 25.0917C11.337 24.5655 11.546 24.0604 11.9176 23.6883C12.2897 23.3158 12.794 23.1064 13.3206 23.106C13.8467 23.1056 14.3514 23.3141 14.7239 23.6863L19.1182 28.0805L30.7604 16.43C31.1325 16.0575 31.6368 15.8481 32.1634 15.8477C32.6895 15.8472 33.1942 16.0558 33.5667 16.4279C33.9392 16.7996 34.1486 17.3043 34.149 17.8304C34.1494 18.3566 33.9409 18.8617 33.5688 19.2342L20.5058 32.2971C20.1317 32.6618 19.6282 32.8638 19.1058 32.8588Z" fill="white"/>
</svg>
