<svg width="36" height="36" viewBox="0 0 36 36" fill="none" xmlns="http://www.w3.org/2000/svg">
<circle cx="18.2785" cy="17.8527" r="17.587" fill="#F6C215"/>
<path d="M23.6552 21.0433L22.0951 20.1423C22.0695 20.1276 22.0412 20.1181 22.0119 20.1144C21.9826 20.1106 21.9529 20.1127 21.9244 20.1204C21.8959 20.1282 21.8692 20.1415 21.8458 20.1595C21.8224 20.1776 21.8029 20.2001 21.7882 20.2257L21.5067 20.7137C21.4445 20.8212 21.4813 20.9598 21.5887 21.022L23.1488 21.923C23.1745 21.9377 23.2027 21.9472 23.232 21.9509C23.2613 21.9547 23.2911 21.9526 23.3196 21.9449C23.3481 21.9371 23.3748 21.9238 23.3981 21.9058C23.4215 21.8877 23.4411 21.8652 23.4558 21.8396L23.7372 21.3516C23.7995 21.2441 23.7613 21.1055 23.6552 21.0433ZM21.7868 15.4734C21.8014 15.499 21.821 15.5215 21.8444 15.5395C21.8677 15.5576 21.8944 15.5709 21.9229 15.5786C21.9514 15.5864 21.9812 15.5885 22.0105 15.5847C22.0398 15.581 22.0681 15.5715 22.0937 15.5568L23.6538 14.6558C23.7613 14.5936 23.798 14.455 23.7358 14.3475L23.4558 13.8609C23.4411 13.8353 23.4215 13.8128 23.3981 13.7947C23.3748 13.7767 23.3481 13.7634 23.3196 13.7556C23.2911 13.7479 23.2613 13.7458 23.232 13.7496C23.2027 13.7533 23.1745 13.7628 23.1488 13.7775L21.5887 14.6785C21.5371 14.7086 21.4995 14.7579 21.4841 14.8157C21.4687 14.8735 21.4769 14.935 21.5067 14.9868L21.7868 15.4734ZM24.2478 17.3404H22.4374C22.3129 17.3404 22.2111 17.4422 22.2111 17.5667V18.1324C22.2111 18.2569 22.3129 18.3587 22.4374 18.3587H24.2478C24.3723 18.3587 24.4741 18.2569 24.4741 18.1324V17.5667C24.4741 17.4422 24.3723 17.3404 24.2478 17.3404ZM19.8901 12.2344C19.8066 12.2344 19.7217 12.257 19.644 12.3093L14.6299 15.5865H12.3103C12.1858 15.5865 12.084 15.6883 12.084 15.8128V19.8863C12.084 20.0107 12.1858 20.1126 12.3103 20.1126H14.6299L19.644 23.3897C19.7217 23.4407 19.808 23.4647 19.8901 23.4647C20.1263 23.4647 20.3441 23.2766 20.3441 23.0107V12.6884C20.3441 12.4225 20.1263 12.2344 19.8901 12.2344Z" fill="black"/>
</svg>
