<svg width="36" height="36" viewBox="0 0 36 36" fill="none" xmlns="http://www.w3.org/2000/svg">
<circle cx="18.2785" cy="18.091" r="17.587" fill="#F6C215"/>
<g clip-path="url(#clip0_107_1573)">
<path d="M24.1628 13.1094H12.395C12.1446 13.1094 11.9424 13.3116 11.9424 13.562V22.6141C11.9424 22.8645 12.1446 23.0667 12.395 23.0667H24.1628C24.4131 23.0667 24.6154 22.8645 24.6154 22.6141V13.562C24.6154 13.3116 24.4131 13.1094 24.1628 13.1094ZM23.02 14.6497L18.5575 18.122C18.4472 18.2083 18.293 18.2083 18.1827 18.122L13.7189 14.6497C13.702 14.6367 13.6897 14.6187 13.6836 14.5984C13.6774 14.578 13.6778 14.5563 13.6847 14.5362C13.6916 14.516 13.7045 14.4986 13.7218 14.4862C13.7391 14.4738 13.7598 14.4672 13.7811 14.4672H22.9577C22.979 14.4672 22.9997 14.4738 23.017 14.4862C23.0343 14.4986 23.0473 14.516 23.0541 14.5362C23.061 14.5563 23.0614 14.578 23.0553 14.5984C23.0491 14.6187 23.0368 14.6367 23.02 14.6497Z" fill="black"/>
</g>
<defs>
<clipPath id="clip0_107_1573">
<rect width="14.4835" height="14.4835" fill="white" transform="translate(11.0371 10.8477)"/>
</clipPath>
</defs>
</svg>
