<svg width="46" height="47" viewBox="0 0 46 47" fill="none" xmlns="http://www.w3.org/2000/svg">
<path d="M22.7357 46.2018C35.2922 46.2018 45.4713 36.0227 45.4713 23.4661C45.4713 10.9096 35.2922 0.730469 22.7357 0.730469C10.1791 0.730469 0 10.9096 0 23.4661C0 36.0227 10.1791 46.2018 22.7357 46.2018Z" fill="#F6C215"/>
<path d="M19.0663 31.4855C26.5159 31.4855 30.5912 25.3128 30.5912 19.9693C30.5912 19.7965 30.5912 19.6213 30.5838 19.4486C31.3772 18.8743 32.0619 18.1632 32.6059 17.3487C31.8648 17.6755 31.0794 17.8908 30.2753 17.9878C31.1223 17.4815 31.7568 16.6849 32.0606 15.746C31.2648 16.2174 30.3938 16.5484 29.4857 16.7244C27.953 15.0921 25.3872 15.0113 23.7549 16.544C22.7008 17.5338 22.2537 19.01 22.5814 20.4184C19.3245 20.2551 16.29 18.7174 14.2323 16.1877C13.1603 18.0392 13.7099 20.4049 15.4883 21.5942C14.8461 21.5724 14.2181 21.3999 13.6549 21.0908V21.1463C13.6571 23.073 15.0143 24.7322 16.9022 25.1166C16.5546 25.2124 16.1955 25.2601 15.835 25.2585C15.5808 25.2593 15.3271 25.2358 15.0774 25.1882C15.6081 26.8376 17.1291 27.9668 18.8615 27.9976C17.426 29.125 15.6529 29.7365 13.8276 29.7335C13.506 29.7349 13.1846 29.7163 12.8652 29.678C14.7178 30.859 16.8693 31.4862 19.0663 31.4855H19.0663Z" fill="white"/>
</svg>
