<svg width="47" height="47" viewBox="0 0 47 47" fill="none" xmlns="http://www.w3.org/2000/svg">
<path d="M23.6263 46.2525C36.1828 46.2525 46.3619 36.0735 46.3619 23.5169C46.3619 10.9603 36.1828 0.78125 23.6263 0.78125C11.0697 0.78125 0.890625 10.9603 0.890625 23.5169C0.890625 36.0735 11.0697 46.2525 23.6263 46.2525Z" fill="#F6C215"/>
<path d="M14.728 15.8957C14.728 15.1917 15.3131 14.6211 16.0349 14.6211H31.2173C31.9391 14.6211 32.5242 15.1917 32.5242 15.8957V31.1426C32.5242 31.8466 31.9391 32.4172 31.2173 32.4172H16.0349C15.3131 32.4172 14.728 31.8466 14.728 31.1426V15.8957ZM20.2259 29.5187V21.4826H17.5554V29.5187H20.2259ZM18.8912 20.3848C19.8222 20.3848 20.4017 19.7686 20.4017 18.9967C20.385 18.2081 19.8233 17.6086 18.909 17.6086C17.9947 17.6086 17.3974 18.2092 17.3974 18.9967C17.3974 19.7686 17.9769 20.3848 18.8734 20.3848H18.8912H18.8912ZM24.3502 29.5187V25.0307C24.3502 24.7905 24.368 24.5502 24.4392 24.3789C24.6316 23.8996 25.0709 23.4024 25.8095 23.4024C26.776 23.4024 27.162 24.1387 27.162 25.2198V29.5187H29.8325V24.9095C29.8325 22.4403 28.5156 21.2924 26.7582 21.2924C25.3412 21.2924 24.7061 22.071 24.3502 22.6194V22.6472H24.3324L24.3502 22.6194V21.4826H21.6808C21.7141 22.2367 21.6808 29.5187 21.6808 29.5187H24.3502Z" fill="white"/>
</svg>
