<svg width="52" height="52" viewBox="0 0 52 52" fill="none" xmlns="http://www.w3.org/2000/svg">
<path d="M34.2105 5.56511C34.1261 5.50072 33.3444 4.91927 31.9521 4.35977C30.1584 3.63888 28.1003 3.25781 26.0003 3.25781C23.9002 3.25781 21.8422 3.63888 20.0483 4.35977C18.6561 4.91927 17.8744 5.50072 17.7899 5.56521C17.366 5.88849 17.1172 6.39112 17.1172 6.92422V9.60557L18.8262 10.5196L20.5353 9.60557V7.89201C21.4732 7.41335 23.3489 6.6758 26.0001 6.6758C28.6515 6.6758 30.5271 7.41335 31.465 7.89201V9.60547L33.174 10.5195L34.8831 9.60547V6.92422C34.8833 6.39102 34.6345 5.88838 34.2105 5.56511Z" fill="black"/>
<path d="M17.1172 9.60547V11.4925L18.8263 12.4066L20.5354 11.4925V9.60547H17.1172Z" fill="#E0AF0D"/>
<path d="M34.8829 9.60547H31.4648V11.4925L33.1739 12.4066L34.8829 11.4925V9.60547Z" fill="#E0AF0D"/>
<path d="M1.3457 30.293V45.4757C1.3457 47.2782 2.80688 48.7394 4.60931 48.7394H47.3913C49.1937 48.7394 50.6549 47.2782 50.6549 45.4757V30.293H1.3457Z" fill="#F6C215"/>
<path d="M1.3457 28.4064V30.2935C4.05702 32.4462 11.2229 36.6252 26.0003 36.6252C40.7777 36.6252 47.9436 32.4462 50.6549 30.2934V28.4062H1.3457V28.4064Z" fill="black"/>
<path d="M1.20372 27.3193C3.8022 29.4348 10.9581 33.7648 26 33.7648C41.0419 33.7648 48.1977 29.4348 50.7963 27.3193C51.558 26.6991 52 24.8558 52 23.8736V14.7558C52 12.9534 50.5388 11.4922 48.7364 11.4922H3.26361C1.46118 11.4922 0 12.9534 0 14.7558V23.8736C0 24.8558 0.442 26.6991 1.20372 27.3193Z" fill="#F6C215"/>
<path d="M50.7963 26.4066C48.1978 28.5222 41.0419 32.8522 26 32.8522C10.9581 32.8522 3.8023 28.5221 1.20372 26.4066C0.442 25.7865 0 24.8572 0 23.875V25.7621C0 26.7443 0.442 27.6736 1.20372 28.2938C3.8022 30.4093 10.9581 34.7393 26 34.7393C41.0419 34.7393 48.1977 30.4093 50.7963 28.2938C51.558 27.6736 52 26.7443 52 25.7621V23.875C52 24.8572 51.558 25.7865 50.7963 26.4066Z" fill="black"/>
<path d="M26.0004 37.8812C27.6888 37.8812 29.0574 36.6275 29.0574 33.9101V32.0566C29.0574 31.4557 28.5703 30.9688 27.9696 30.9688H24.0312C23.4304 30.9688 22.9434 31.4558 22.9434 32.0566V33.9104C22.9433 36.6275 24.312 37.8812 26.0004 37.8812Z" fill="black"/>
<path d="M26.0004 36.9633C24.312 36.9633 22.9434 35.5946 22.9434 33.9062V35.7934C22.9434 37.4818 24.312 38.8504 26.0004 38.8504C27.6888 38.8504 29.0574 37.4818 29.0574 35.7934V33.9062C29.0574 35.5945 27.6888 36.9633 26.0004 36.9633Z" fill="#E0AF0D"/>
</svg>
