<svg width="36" height="36" viewBox="0 0 36 36" fill="none" xmlns="http://www.w3.org/2000/svg">
<circle cx="18.2785" cy="18.2745" r="17.587" fill="#F6C215"/>
<g clip-path="url(#clip0_17_133)">
<path d="M24.1628 13.293H12.395C12.1446 13.293 11.9424 13.4952 11.9424 13.7456V22.7977C11.9424 23.0481 12.1446 23.2503 12.395 23.2503H24.1628C24.4131 23.2503 24.6154 23.0481 24.6154 22.7977V13.7456C24.6154 13.4952 24.4131 13.293 24.1628 13.293ZM23.02 14.8332L18.5575 18.3056C18.4472 18.3919 18.293 18.3919 18.1827 18.3056L13.7189 14.8332C13.702 14.8203 13.6897 14.8023 13.6836 14.782C13.6774 14.7616 13.6778 14.7399 13.6847 14.7198C13.6916 14.6996 13.7045 14.6822 13.7218 14.6698C13.7391 14.6574 13.7598 14.6508 13.7811 14.6508H22.9577C22.979 14.6508 22.9997 14.6574 23.017 14.6698C23.0343 14.6822 23.0473 14.6996 23.0541 14.7198C23.061 14.7399 23.0614 14.7616 23.0553 14.782C23.0491 14.8023 23.0368 14.8203 23.02 14.8332Z" fill="black"/>
</g>
<defs>
<clipPath id="clip0_17_133">
<rect width="14.4835" height="14.4835" fill="white" transform="translate(11.0371 11.0312)"/>
</clipPath>
</defs>
</svg>
