<svg width="120" height="120" viewBox="0 0 120 120" fill="none" xmlns="http://www.w3.org/2000/svg">
<circle cx="59.9498" cy="59.9503" r="36.0909" stroke="white"/>
<circle cx="59.95" cy="59.9529" r="27.0076" fill="white"/>
<mask id="mask0_107_1216" style="mask-type:alpha" maskUnits="userSpaceOnUse" x="13" y="33" width="94" height="21">
<ellipse cx="60" cy="43.5" rx="47" ry="10.5" fill="black"/>
</mask>
<g mask="url(#mask0_107_1216)">
<path d="M86.9575 59.949C86.9575 56.4023 86.2589 52.8903 84.9017 49.6136C83.5444 46.3369 81.5551 43.3596 79.0472 40.8517C76.5393 38.3439 73.562 36.3545 70.2853 34.9972C67.0086 33.64 63.4966 32.9414 59.9499 32.9414C56.4033 32.9414 52.8913 33.64 49.6146 34.9972C46.3379 36.3545 43.3606 38.3439 40.8527 40.8517C38.3448 43.3596 36.3555 46.3369 34.9982 49.6136C33.641 52.8903 32.9424 56.4023 32.9424 59.949L59.95 59.949H86.9575Z" fill="#F6C215"/>
</g>
<path d="M59.2969 50.0959L59.2969 67.1352L55.3767 63.2149L54.4526 64.139L59.9504 69.6367L65.4481 64.139L64.5241 63.2149L60.6037 67.1353L60.6037 50.0959L59.2969 50.0959Z" fill="black"/>
<path d="M57.6715 113.76C57.7315 114.191 57.9457 114.522 58.3142 114.753C58.6826 114.984 59.131 115.094 59.6593 115.083C60.0456 115.075 60.3823 115.006 60.6694 114.875C60.9537 114.744 61.1746 114.568 61.332 114.346C61.4866 114.124 61.561 113.873 61.5553 113.595C61.5505 113.362 61.491 113.163 61.3768 112.998C61.2598 112.835 61.1121 112.701 60.9337 112.593C60.7554 112.489 60.569 112.403 60.3744 112.336C60.1798 112.272 60.0012 112.22 59.8384 112.181L58.9473 111.961C58.7189 111.906 58.4644 111.829 58.1839 111.729C57.9005 111.63 57.6292 111.492 57.3698 111.315C57.1077 111.142 56.8899 110.916 56.7166 110.638C56.5432 110.361 56.4523 110.017 56.4439 109.608C56.4342 109.137 56.549 108.708 56.7883 108.323C57.0248 107.937 57.3764 107.627 57.8433 107.393C58.3074 107.159 58.8745 107.035 59.5449 107.021C60.1697 107.008 60.7129 107.098 61.1743 107.29C61.6329 107.483 61.9966 107.757 62.2653 108.112C62.5312 108.467 62.686 108.883 62.7299 109.36L61.6392 109.382C61.6041 109.053 61.4877 108.783 61.2901 108.571C61.0898 108.362 60.8394 108.208 60.539 108.109C60.2358 108.013 59.911 107.969 59.5645 107.976C59.1611 107.984 58.8003 108.057 58.4821 108.194C58.1639 108.334 57.9134 108.524 57.7308 108.763C57.5483 109.006 57.4603 109.286 57.4668 109.604C57.4727 109.894 57.5585 110.128 57.7242 110.307C57.8898 110.485 58.1058 110.628 58.3723 110.737C58.6388 110.845 58.9263 110.938 59.2348 111.017L60.3147 111.302C61.0004 111.484 61.5459 111.753 61.951 112.108C62.3561 112.463 62.5647 112.935 62.5767 113.523C62.5868 114.011 62.4635 114.44 62.2068 114.809C61.9473 115.181 61.5953 115.472 61.1506 115.683C60.7032 115.897 60.2012 116.01 59.6445 116.021C59.0821 116.033 58.5801 115.942 58.1386 115.749C57.6971 115.56 57.345 115.294 57.0822 114.953C56.8166 114.612 56.6722 114.221 56.649 113.781L57.6715 113.76Z" fill="white"/>
<path d="M46.34 111.725L47.3838 111.89C47.3981 112.2 47.4643 112.481 47.5827 112.733C47.6983 112.984 47.8533 113.204 48.0477 113.393C48.2389 113.584 48.4601 113.74 48.7115 113.86C48.9628 113.981 49.2316 114.064 49.5178 114.109C50.0397 114.191 50.5334 114.134 50.9988 113.938C51.4615 113.741 51.8583 113.405 52.1893 112.931C52.5175 112.457 52.7406 111.846 52.8588 111.1C52.9769 110.353 52.9531 109.704 52.7875 109.151C52.619 108.598 52.3452 108.157 51.966 107.826C51.5841 107.495 51.1322 107.289 50.6102 107.206C50.324 107.161 50.0428 107.157 49.7666 107.193C49.4904 107.23 49.2321 107.309 48.9916 107.429C48.7479 107.551 48.5323 107.714 48.3448 107.918C48.154 108.123 48.0042 108.37 47.8954 108.658L46.8516 108.492C46.9999 108.064 47.2054 107.693 47.4681 107.378C47.7308 107.062 48.0358 106.807 48.3831 106.612C48.73 106.42 49.1056 106.291 49.51 106.225C49.9116 106.159 50.3299 106.161 50.7648 106.23C51.5 106.346 52.1253 106.629 52.6409 107.079C53.1565 107.529 53.526 108.111 53.7495 108.825C53.973 109.539 54.0128 110.351 53.8689 111.26C53.725 112.169 53.4365 112.929 53.0034 113.539C52.5703 114.149 52.0392 114.588 51.4099 114.857C50.7806 115.126 50.0984 115.202 49.3632 115.085C48.9283 115.016 48.53 114.889 48.1684 114.702C47.804 114.515 47.4867 114.275 47.2167 113.982C46.9462 113.692 46.7347 113.356 46.5822 112.976C46.4291 112.598 46.3484 112.181 46.34 111.725Z" fill="white"/>
<path d="M45.6216 105.084L42.7567 113.327L39.9713 112.359C39.3272 112.136 38.8368 111.842 38.5 111.478C38.1623 111.117 37.9604 110.712 37.8942 110.262C37.8281 109.811 37.8794 109.344 38.0482 108.858C38.217 108.372 38.4659 107.976 38.7951 107.669C39.1242 107.363 39.5314 107.173 40.0165 107.101C40.5008 107.032 41.0622 107.108 41.7009 107.33L43.955 108.114L43.6417 109.015L41.4198 108.243C40.9797 108.09 40.6031 108.031 40.29 108.067C39.9742 108.102 39.7149 108.216 39.512 108.41C39.3056 108.606 39.145 108.869 39.0303 109.199C38.9156 109.529 38.8771 109.839 38.9147 110.129C38.9524 110.419 39.0834 110.678 39.3078 110.906C39.5313 111.137 39.8658 111.33 40.3112 111.485L42.0662 112.095L44.6233 104.737L45.6216 105.084ZM40.4543 107.438L39.7125 103.03L40.8718 103.433L41.5814 107.83L40.4543 107.438Z" fill="white"/>
<path d="M29.5702 102.233C30.0264 101.434 30.565 100.825 31.186 100.408C31.807 99.9901 32.4592 99.767 33.1428 99.7384C33.8264 99.7098 34.4914 99.88 35.1379 100.249C35.7844 100.618 36.2692 101.104 36.5923 101.707C36.9155 102.31 37.0552 102.985 37.0116 103.732C36.9681 104.479 36.7182 105.252 36.262 106.052C35.8058 106.851 35.2672 107.46 34.6462 107.877C34.0253 108.295 33.373 108.518 32.6894 108.547C32.0058 108.575 31.3408 108.405 30.6943 108.036C30.0478 107.667 29.563 107.181 29.2399 106.578C28.9167 105.975 28.777 105.3 28.8206 104.553C28.8642 103.806 29.114 103.033 29.5702 102.233ZM30.4585 102.74C30.084 103.396 29.8777 104.013 29.8396 104.59C29.7991 105.165 29.899 105.675 30.1392 106.12C30.377 106.563 30.7253 106.916 31.1843 107.177C31.6432 107.439 32.1252 107.561 32.6301 107.541C33.1326 107.521 33.6224 107.347 34.0997 107.021C34.5745 106.693 34.9992 106.201 35.3737 105.545C35.7482 104.889 35.9557 104.273 35.9963 103.697C36.0343 103.12 35.9345 102.61 35.6967 102.167C35.4565 101.723 35.1069 101.369 34.6479 101.108C34.189 100.846 33.7083 100.725 33.2058 100.746C32.7009 100.765 32.211 100.939 31.7362 101.266C31.2589 101.593 30.833 102.084 30.4585 102.74Z" fill="white"/>
<path d="M30.1703 96.9653L24.5745 103.662L23.7635 102.985L28.7582 97.0071L25.645 94.4059L26.2461 93.6865L30.1703 96.9653Z" fill="white"/>
<path d="M24.6636 91.8688L18.085 97.6036L17.3906 96.807L23.2624 91.6882L20.5967 88.6302L21.3033 88.0142L24.6636 91.8688Z" fill="white"/>
<path d="M10.327 84.859L9.47652 85.2534L6.72237 79.3156L7.57284 78.9211L8.72757 81.4107L15.7942 78.133L16.2389 79.0917L9.17225 82.3694L10.327 84.859Z" fill="white"/>
<path d="M8.08301 67.6267C8.9748 67.3987 9.78664 67.3628 10.5185 67.5188C11.2504 67.6748 11.8642 67.9885 12.3601 68.46C12.8559 68.9315 13.1959 69.5277 13.3803 70.2489C13.5646 70.97 13.5523 71.6564 13.3435 72.3079C13.1347 72.9594 12.7467 73.5292 12.1794 74.0173C11.6121 74.5053 10.8826 74.8633 9.99081 75.0913C9.09902 75.3192 8.28718 75.3551 7.5553 75.1991C6.82342 75.0431 6.20957 74.7294 5.71375 74.2579C5.21794 73.7865 4.87787 73.1902 4.69356 72.469C4.50926 71.7479 4.52151 71.0615 4.73031 70.41C4.93912 69.7585 5.32715 69.1887 5.89442 68.7006C6.46169 68.2126 7.19122 67.8546 8.08301 67.6267ZM8.33626 68.6175C7.60411 68.8046 7.01749 69.0851 6.57641 69.4588C6.13461 69.8297 5.83747 70.2561 5.68496 70.7378C5.53175 71.2168 5.52057 71.7123 5.65141 72.2242C5.78226 72.7362 6.03016 73.1669 6.39511 73.5164C6.75936 73.8631 7.22463 74.0946 7.79094 74.2108C8.35654 74.3243 9.00541 74.2875 9.73756 74.1004C10.4697 73.9133 11.0567 73.6342 11.4985 73.2633C11.9396 72.8896 12.2367 72.4632 12.3899 71.9842C12.5424 71.5025 12.5532 71.0056 12.4224 70.4937C12.2916 69.9817 12.044 69.5524 11.6798 69.2057C11.3148 68.8562 10.8495 68.6247 10.2839 68.5112C9.71763 68.395 9.06841 68.4304 8.33626 68.6175Z" fill="white"/>
<path d="M12.0388 58.8049L3.3234 58.3497L3.59813 53.0898L4.53436 53.1387L4.31475 57.3432L7.2596 57.497L7.46498 53.5649L8.40121 53.6138L8.19582 57.5459L11.1577 57.7007L11.3809 53.4281L12.3171 53.477L12.0388 58.8049Z" fill="white"/>
<path d="M4.46877 48.2886L8.5073 46.8977L8.52239 46.8312L5.47955 43.8336L5.75487 42.6201L9.40313 46.262L14.2658 44.5512L13.9905 45.7647L10.0185 47.1706L10.0034 47.2371L12.9797 50.2196L12.7044 51.4331L9.07123 47.7248L4.19344 49.5021L4.46877 48.2886Z" fill="white"/>
<path d="M15.0569 42.889L6.99846 39.5384L8.13059 36.8156C8.39344 36.1834 8.72241 35.714 9.11751 35.4076C9.51107 35.0974 9.94101 34.9254 10.4073 34.8916C10.8736 34.8579 11.3442 34.9397 11.819 35.1371C12.2938 35.3345 12.685 35.611 12.9925 35.9665C13.3011 36.3194 13.4874 36.7445 13.5514 37.2419C13.6127 37.7381 13.513 38.2997 13.2524 38.9266L12.4409 40.8783L11.5752 40.5184L12.3736 38.5982C12.5536 38.1654 12.6233 37.7867 12.5829 37.4622C12.5424 37.1377 12.4195 36.8636 12.2142 36.6397C12.0072 36.4122 11.7425 36.2313 11.4198 36.0972C11.0972 35.963 10.7835 35.9034 10.4789 35.9182C10.1754 35.9305 9.89639 36.0391 9.64196 36.2441C9.3849 36.4479 9.1653 36.7689 8.98315 37.207L8.26985 38.9225L15.4627 41.9132L15.0569 42.889Z" fill="white"/>
<path d="M18.5717 35.5319L11.17 30.908L11.73 30.0117L18.3365 34.1389L20.4859 30.6982L21.281 31.1949L18.5717 35.5319Z" fill="white"/>
<path d="M24.4805 21.0406C25.1628 21.6585 25.6408 22.3156 25.9147 23.012C26.1885 23.7084 26.2657 24.3935 26.1462 25.0671C26.0268 25.7408 25.7172 26.3535 25.2176 26.9052C24.718 27.4569 24.1389 27.8255 23.4803 28.011C22.8218 28.1965 22.1325 28.1874 21.4124 27.9837C20.6923 27.7801 19.9911 27.3693 19.3089 26.7515C18.6266 26.1336 18.1485 25.4765 17.8747 24.7801C17.6008 24.0837 17.5236 23.3986 17.6431 22.7249C17.7626 22.0513 18.0721 21.4386 18.5718 20.8869C19.0714 20.3352 19.6505 19.9666 20.309 19.7811C20.9676 19.5956 21.6569 19.6047 22.377 19.8083C23.0971 20.012 23.7982 20.4227 24.4805 21.0406ZM23.794 21.7987C23.2339 21.2914 22.6763 20.957 22.1212 20.7955C21.568 20.6318 21.0485 20.6193 20.5626 20.7581C20.0786 20.8947 19.6593 21.1588 19.3046 21.5505C18.9499 21.9422 18.7275 22.3866 18.6375 22.8838C18.5494 23.379 18.6132 23.8947 18.8288 24.4311C19.0464 24.9654 19.4352 25.4861 19.9954 25.9934C20.5555 26.5006 21.1121 26.8361 21.6653 26.9998C22.2204 27.1613 22.7399 27.1738 23.2239 27.0372C23.7098 26.8985 24.1301 26.6333 24.4848 26.2416C24.8395 25.8499 25.0609 25.4065 25.149 24.9114C25.239 24.4142 25.1752 23.8984 24.9577 23.3641C24.742 22.8277 24.3541 22.3059 23.794 21.7987Z" fill="white"/>
<path d="M29.464 22.7739L24.1766 15.8306L26.5226 14.0441C27.0651 13.631 27.5809 13.3846 28.0701 13.3049C28.5576 13.2229 29.0072 13.2787 29.4188 13.4722C29.8305 13.6658 30.1921 13.9672 30.5036 14.3762C30.8151 14.7853 31.0077 15.2118 31.0815 15.6556C31.1552 16.0994 31.088 16.5433 30.8799 16.9875C30.67 17.4294 30.2961 17.8551 29.7582 18.2648L27.8597 19.7105L27.2814 18.9511L29.1528 17.526C29.5235 17.2437 29.7805 16.9623 29.9239 16.6817C30.0696 16.3994 30.1175 16.12 30.0678 15.8437C30.0185 15.5634 29.8881 15.2842 29.6764 15.0062C29.4647 14.7282 29.2277 14.5248 28.9653 14.396C28.703 14.2673 28.4147 14.2333 28.1004 14.2941C27.7843 14.3527 27.4387 14.5249 27.0635 14.8106L25.5854 15.9362L30.3048 22.1336L29.464 22.7739ZM30.357 17.166L34.4409 18.9839L33.4645 19.7274L29.4077 17.8889L30.357 17.166Z" fill="white"/>
<path d="M36.1668 18.1761L32.1374 10.4346L36.8095 8.00285L37.2423 8.83445L33.5077 10.7783L34.8692 13.3941L38.3619 11.5761L38.7947 12.4077L35.302 14.2257L36.6714 16.8565L40.4665 14.8812L40.8993 15.7128L36.1668 18.1761Z" fill="white"/>
<path d="M50.9471 11.1794C50.61 11.2467 50.2857 11.2261 49.9743 11.1174C49.6623 11.0059 49.3949 10.8275 49.1721 10.5824C48.9521 10.3366 48.8084 10.0452 48.741 9.70812C48.6731 9.36825 48.6938 9.04399 48.803 8.73535C48.9145 8.42337 49.0931 8.15736 49.3389 7.93733C49.584 7.71451 49.8752 7.56943 50.2123 7.50207C50.5521 7.43416 50.8767 7.45622 51.1859 7.56826C51.4973 7.67696 51.763 7.85418 51.9831 8.09992C52.2053 8.34232 52.3504 8.63345 52.4183 8.97332C52.4857 9.31041 52.4636 9.63495 52.3521 9.94693C52.2434 10.2584 52.0665 10.5255 51.8213 10.7483C51.5784 10.9678 51.2869 11.1115 50.9471 11.1794Z" fill="white"/>
<path d="M67.3207 5.93224C67.3066 5.49763 67.1286 5.14593 66.7867 4.87712C66.4447 4.60832 66.0105 4.45136 65.484 4.40626C65.0991 4.37328 64.7569 4.40669 64.4575 4.5065C64.161 4.60655 63.9227 4.75865 63.7427 4.96277C63.5655 5.16715 63.465 5.40803 63.4412 5.68542C63.4214 5.91753 63.4595 6.12181 63.5555 6.29827C63.6547 6.47214 63.7873 6.62179 63.9533 6.74721C64.1196 6.86981 64.296 6.97473 64.4824 7.06199C64.669 7.14641 64.8412 7.21676 64.9989 7.27304L65.8617 7.58647C66.083 7.66531 66.3279 7.76897 66.5963 7.89747C66.8676 8.02621 67.1228 8.19206 67.3621 8.39504C67.6044 8.59544 67.797 8.8429 67.94 9.13743C68.083 9.43196 68.137 9.78302 68.1021 10.1906C68.0619 10.6605 67.9024 11.0745 67.6236 11.4327C67.3477 11.7912 66.9652 12.0621 66.4762 12.2454C65.99 12.429 65.4129 12.4922 64.7449 12.435C64.1222 12.3816 63.5915 12.2349 63.153 11.9949C62.7174 11.7552 62.3847 11.4444 62.1551 11.0626C61.9283 10.681 61.8183 10.2511 61.8251 9.77261L62.912 9.86573C62.9122 10.1965 62.9993 10.4777 63.1734 10.7093C63.3505 10.9383 63.5832 11.1179 63.8714 11.2481C64.1627 11.3757 64.481 11.4543 64.8264 11.4839C65.2283 11.5183 65.5948 11.4842 65.9258 11.3814C66.257 11.2757 66.5261 11.1134 66.7331 10.8945C66.9402 10.6727 67.0574 10.4034 67.0846 10.0863C67.1093 9.79762 67.0488 9.55578 66.9029 9.3608C66.7571 9.16582 66.5574 9.00045 66.3039 8.86467C66.0504 8.7289 65.7744 8.60546 65.476 8.49435L64.4322 8.09699C63.7696 7.84349 63.2557 7.5186 62.8904 7.12234C62.5252 6.72609 62.3677 6.23499 62.4179 5.64907C62.4596 5.16222 62.6276 4.74891 62.9219 4.40916C63.2192 4.06681 63.6001 3.81431 64.0646 3.65166C64.5321 3.48642 65.0432 3.42756 65.598 3.47509C66.1585 3.52311 66.648 3.66627 67.0667 3.90458C67.4856 4.14006 67.8077 4.44138 68.0329 4.80853C68.2609 5.17592 68.3631 5.57959 68.3397 6.01954L67.3207 5.93224Z" fill="white"/>
<path d="M78.3735 9.15568L77.353 8.88097C77.3717 8.5712 77.3355 8.2849 77.2444 8.02208C77.1561 7.76 77.0253 7.52472 76.8519 7.31624C76.682 7.10575 76.4785 6.9274 76.2413 6.78117C76.0041 6.63494 75.7456 6.52417 75.4658 6.44884C74.9556 6.31149 74.4586 6.31599 73.975 6.46234C73.4941 6.60944 73.064 6.90113 72.6847 7.33742C72.3081 7.77445 72.0216 8.35782 71.8252 9.08752C71.6288 9.81723 71.5837 10.4656 71.6899 11.0326C71.799 11.6003 72.0245 12.0685 72.3666 12.4371C72.7114 12.8065 73.1389 13.0599 73.6492 13.1972C73.929 13.2726 74.2081 13.3065 74.4867 13.2991C74.7652 13.2917 75.0304 13.241 75.2823 13.147C75.5376 13.051 75.7692 12.9118 75.9772 12.7295C76.1886 12.5452 76.3637 12.3157 76.5023 12.0412L77.5228 12.3159C77.33 12.7259 77.0864 13.0737 76.7918 13.3592C76.4972 13.6447 76.1669 13.8662 75.8009 14.0236C75.4357 14.1783 75.0485 14.2668 74.6394 14.2891C74.2331 14.3121 73.8174 14.2664 73.3922 14.1519C72.6734 13.9584 72.0815 13.6108 71.6164 13.109C71.1513 12.6072 70.8454 11.9894 70.6988 11.2556C70.5521 10.5218 70.5984 9.71048 70.8376 8.82167C71.0769 7.93286 71.4441 7.20795 71.9394 6.64694C72.4346 6.08594 73.0093 5.70519 73.6635 5.5047C74.3176 5.30422 75.0041 5.30071 75.7228 5.49419C76.148 5.60866 76.5305 5.77783 76.8704 6.00171C77.213 6.22632 77.503 6.49858 77.7405 6.81847C77.9788 7.13563 78.1536 7.49161 78.265 7.88642C78.3772 8.27848 78.4134 8.70157 78.3735 9.15568Z" fill="white"/>
<path d="M78.3846 15.8326L82.1055 7.93829L84.7729 9.19556C85.3897 9.48626 85.8462 9.83023 86.1427 10.2275C86.4403 10.6222 86.5982 11.0468 86.6164 11.5013C86.6345 11.9559 86.534 12.4157 86.3148 12.8808C86.0955 13.3459 85.806 13.7136 85.4463 13.9837C85.0866 14.2538 84.6617 14.399 84.1716 14.4193C83.6827 14.437 83.1325 14.3017 82.5209 14.0134L80.3623 12.996L80.7693 12.1325L82.897 13.1354C83.3185 13.3341 83.6868 13.4323 84.0019 13.4301C84.3196 13.4291 84.5895 13.3427 84.8117 13.1711C85.0377 12.9981 85.2252 12.7536 85.3742 12.4375C85.5232 12.1214 85.5943 11.8173 85.5875 11.5252C85.5808 11.233 85.4779 10.9616 85.2789 10.7107C85.0811 10.4573 84.769 10.2301 84.3424 10.029L82.6618 9.23689L79.3405 16.2832L78.3846 15.8326ZM83.772 14.0378L84.0432 18.4997L82.933 17.9765L82.6927 13.5291L83.772 14.0378Z" fill="white"/>
<path d="M94.044 20.3685C93.5058 21.1152 92.9059 21.6633 92.2442 22.0129C91.5825 22.3624 90.9103 22.5152 90.2275 22.4714C89.5448 22.4275 88.9015 22.1879 88.2977 21.7527C87.6938 21.3175 87.2632 20.783 87.0057 20.1491C86.7481 19.5152 86.6806 18.8292 86.803 18.0909C86.9253 17.3527 87.2556 16.6102 87.7938 15.8635C88.3321 15.1168 88.932 14.5687 89.5937 14.2191C90.2553 13.8696 90.9276 13.7167 91.6103 13.7606C92.2931 13.8045 92.9364 14.044 93.5402 14.4793C94.144 14.9145 94.5747 15.449 94.8322 16.0829C95.0897 16.7168 95.1573 17.4028 95.0349 18.1411C94.9125 18.8793 94.5822 19.6218 94.044 20.3685ZM93.2144 19.7705C93.6562 19.1575 93.9266 18.5661 94.0255 17.9966C94.1267 17.4286 94.0813 16.9109 93.8895 16.4435C93.6999 15.9776 93.3908 15.5903 92.9621 15.2813C92.5335 14.9723 92.0671 14.8007 91.5629 14.7665C91.0611 14.734 90.5556 14.8547 90.0465 15.1286C89.5397 15.4042 89.0654 15.8485 88.6235 16.4615C88.1817 17.0745 87.9101 17.665 87.8089 18.2329C87.7101 18.8025 87.7554 19.3202 87.945 19.786C88.1368 20.2535 88.4471 20.6417 88.8757 20.9507C89.3044 21.2597 89.7697 21.4304 90.2715 21.463C90.7756 21.4972 91.2811 21.3765 91.7879 21.1009C92.297 20.827 92.7725 20.3835 93.2144 19.7705Z" fill="white"/>
<path d="M92.8907 25.5479L99.1636 19.4803L99.8984 20.2399L94.2993 25.6557L97.1198 28.5716L96.4459 29.2234L92.8907 25.5479Z" fill="white"/>
<path d="M97.8275 31.195L104.976 26.1884L105.582 27.054L99.2017 31.5228L101.529 34.8457L100.761 35.3835L97.8275 31.195Z" fill="white"/>
<path d="M111.342 39.6834L112.229 39.3812L114.34 45.577L113.452 45.8793L112.567 43.2816L105.193 45.7932L104.853 44.7929L112.226 42.2812L111.342 39.6834Z" fill="white"/>
<path d="M111.749 57.0556C110.838 57.1878 110.027 57.1377 109.316 56.9051C108.605 56.6725 108.028 56.2956 107.584 55.7744C107.141 55.2531 106.866 54.6242 106.759 53.8876C106.652 53.151 106.737 52.4698 107.014 51.844C107.29 51.2182 107.736 50.6927 108.352 50.2674C108.968 49.8421 109.731 49.5633 110.642 49.431C111.553 49.2987 112.364 49.3488 113.075 49.5814C113.787 49.814 114.364 50.1909 114.807 50.7122C115.25 51.2335 115.525 51.8624 115.632 52.599C115.739 53.3356 115.654 54.0168 115.378 54.6425C115.101 55.2683 114.655 55.7939 114.039 56.2192C113.424 56.6445 112.66 56.9233 111.749 57.0556ZM111.602 56.0434C112.35 55.9348 112.963 55.7181 113.441 55.3931C113.92 55.071 114.26 54.6785 114.463 54.2156C114.666 53.7555 114.73 53.264 114.654 52.7411C114.578 52.2181 114.377 51.7636 114.051 51.3775C113.725 50.9941 113.287 50.7147 112.736 50.5392C112.186 50.3665 111.537 50.3345 110.789 50.4431C110.041 50.5517 109.428 50.7671 108.949 51.0892C108.471 51.4141 108.131 51.8067 107.928 52.2667C107.725 52.7297 107.662 53.2226 107.738 53.7455C107.814 54.2684 108.014 54.7215 108.34 55.1049C108.666 55.491 109.104 55.7704 109.654 55.9431C110.205 56.1186 110.854 56.1521 111.602 56.0434Z" fill="white"/>
<path d="M106.882 65.4111L115.501 66.7859L114.671 71.9872L113.745 71.8395L114.408 67.6818L111.496 67.2173L110.876 71.1057L109.95 70.958L110.57 67.0696L107.642 66.6024L106.968 70.8274L106.042 70.6797L106.882 65.4111Z" fill="white"/>
<path d="M113.298 76.6685L109.135 77.6243L109.113 77.6888L111.821 80.9915L111.419 82.169L108.177 78.1616L103.16 79.3483L103.563 78.1708L107.661 77.193L107.683 77.1284L105.039 73.8478L105.441 72.6702L108.662 76.7421L113.7 75.4909L113.298 76.6685Z" fill="white"/>
<path d="M102.198 80.9122L109.857 85.0966L108.443 87.6844C108.114 88.2852 107.738 88.7171 107.312 88.98C106.888 89.2468 106.443 89.3724 105.975 89.3566C105.508 89.3409 105.049 89.2098 104.597 88.9632C104.146 88.7167 103.786 88.4004 103.518 88.0143C103.249 87.6307 103.109 87.1883 103.098 86.6869C103.089 86.187 103.248 85.6391 103.573 85.0433L104.586 83.1884L105.409 83.6379L104.412 85.4628C104.187 85.8742 104.078 86.2433 104.084 86.5703C104.09 86.8972 104.183 87.1829 104.364 87.4272C104.545 87.6754 104.789 87.8832 105.096 88.0507C105.403 88.2183 105.708 88.3108 106.013 88.3282C106.316 88.3481 106.605 88.2697 106.879 88.0928C107.157 87.9173 107.409 87.6213 107.636 87.205L108.527 85.5745L101.691 81.8396L102.198 80.9122Z" fill="white"/>
<path d="M97.9243 87.8589L104.795 93.2399L104.144 94.0719L98.0108 89.2689L95.5094 92.4628L94.7713 91.8848L97.9243 87.8589Z" fill="white"/>
<path d="M90.5148 101.647C89.9017 100.96 89.4958 100.256 89.2972 99.5348C89.0986 98.8133 89.0943 98.124 89.2844 97.4667C89.4745 96.8095 89.8471 96.233 90.4023 95.7372C90.9575 95.2414 91.5723 94.9362 92.2468 94.8214C92.9213 94.7066 93.6058 94.7886 94.3003 95.0673C94.9947 95.346 95.6485 95.8287 96.2616 96.5152C96.8747 97.2018 97.2805 97.9058 97.4792 98.6273C97.6778 99.3488 97.6821 100.038 97.492 100.695C97.3019 101.353 96.9293 101.929 96.3741 102.425C95.8189 102.921 95.204 103.226 94.5296 103.341C93.8551 103.455 93.1706 103.373 92.4761 103.095C91.7816 102.816 91.1278 102.333 90.5148 101.647ZM91.2776 100.966C91.7809 101.529 92.3 101.921 92.8349 102.14C93.3677 102.362 93.8829 102.429 94.3808 102.342C94.8765 102.258 95.3214 102.039 95.7156 101.687C96.1097 101.336 96.3779 100.917 96.52 100.432C96.66 99.9492 96.6511 99.4296 96.4934 98.8734C96.3336 98.3191 96.0021 97.7601 95.4987 97.1964C94.9954 96.6328 94.4774 96.2403 93.9446 96.019C93.4098 95.7996 92.8945 95.7323 92.3987 95.8169C91.9009 95.9034 91.4549 96.1227 91.0608 96.4746C90.6666 96.8266 90.3996 97.2441 90.2596 97.7271C90.1175 98.212 90.1263 98.7316 90.2861 99.2859C90.4438 99.8421 90.7743 100.402 91.2776 100.966Z" fill="white"/>
<path d="M85.7426 99.3945L90.2657 106.858L87.7438 108.387C87.1607 108.74 86.6217 108.93 86.1268 108.958C85.6334 108.988 85.1923 108.885 84.8034 108.649C84.4146 108.413 84.0869 108.075 83.8204 107.635C83.5539 107.195 83.4075 106.751 83.3811 106.302C83.3548 105.853 83.4686 105.418 83.7225 104.999C83.9779 104.581 84.3947 104.198 84.973 103.847L87.0138 102.61L87.5085 103.427L85.4968 104.646C85.0984 104.887 84.813 105.14 84.6407 105.404C84.466 105.669 84.3888 105.942 84.409 106.222C84.4283 106.506 84.5285 106.797 84.7096 107.096C84.8907 107.395 85.1049 107.622 85.3521 107.778C85.5993 107.934 85.8824 107.998 86.2014 107.971C86.5219 107.946 86.8838 107.812 87.2871 107.567L88.8761 106.604L84.8388 99.9423L85.7426 99.3945ZM84.2613 104.876L80.3927 102.637L81.4422 102.001L85.2817 104.258L84.2613 104.876Z" fill="white"/>
<path d="M78.5916 103.262L81.7793 111.386L76.8762 113.31L76.5338 112.437L80.4531 110.9L79.376 108.154L75.7106 109.593L75.3681 108.72L79.0336 107.282L77.9503 104.521L73.9675 106.083L73.625 105.211L78.5916 103.262Z" fill="white"/>
<path d="M68.1918 108.289C68.5342 108.258 68.8544 108.312 69.1526 108.453C69.451 108.597 69.6981 108.803 69.8937 109.07C70.0865 109.338 70.1985 109.643 70.2299 109.985C70.2614 110.33 70.2066 110.651 70.0653 110.946C69.9214 111.244 69.7156 111.49 69.448 111.683C69.1806 111.879 68.8758 111.992 68.5335 112.023C68.1883 112.055 67.8679 111.999 67.5723 111.854C67.2741 111.713 67.0286 111.509 66.8359 111.241C66.6405 110.977 66.527 110.672 66.4954 110.327C66.4641 109.985 66.5204 109.664 66.6643 109.366C66.8053 109.068 67.0095 108.821 67.2769 108.625C67.5417 108.433 67.8467 108.32 68.1918 108.289Z" fill="white"/>
</svg>
