<svg width="36" height="36" viewBox="0 0 36 36" fill="none" xmlns="http://www.w3.org/2000/svg">
<circle cx="18.2785" cy="18.0363" r="17.587" fill="#F6C215"/>
<path d="M23.6552 21.2268L22.0951 20.3259C22.0695 20.3112 22.0412 20.3017 22.0119 20.298C21.9826 20.2942 21.9529 20.2963 21.9244 20.304C21.8959 20.3118 21.8692 20.3251 21.8458 20.3431C21.8224 20.3612 21.8029 20.3837 21.7882 20.4093L21.5067 20.8973C21.4445 21.0048 21.4813 21.1434 21.5887 21.2056L23.1488 22.1066C23.1745 22.1213 23.2027 22.1308 23.232 22.1345C23.2613 22.1383 23.2911 22.1362 23.3196 22.1285C23.3481 22.1207 23.3748 22.1074 23.3981 22.0894C23.4215 22.0713 23.4411 22.0488 23.4558 22.0232L23.7372 21.5352C23.7995 21.4277 23.7613 21.2891 23.6552 21.2268ZM21.7868 15.6569C21.8014 15.6826 21.821 15.7051 21.8444 15.7231C21.8677 15.7412 21.8944 15.7545 21.9229 15.7622C21.9514 15.77 21.9812 15.7721 22.0105 15.7683C22.0398 15.7646 22.0681 15.7551 22.0937 15.7404L23.6538 14.8394C23.7613 14.7772 23.798 14.6386 23.7358 14.5311L23.4558 14.0445C23.4411 14.0189 23.4215 13.9964 23.3981 13.9783C23.3748 13.9603 23.3481 13.947 23.3196 13.9392C23.2911 13.9315 23.2613 13.9294 23.232 13.9332C23.2027 13.9369 23.1745 13.9464 23.1488 13.9611L21.5887 14.8621C21.5371 14.8922 21.4995 14.9415 21.4841 14.9993C21.4687 15.0571 21.4769 15.1186 21.5067 15.1704L21.7868 15.6569ZM24.2478 17.524H22.4374C22.3129 17.524 22.2111 17.6258 22.2111 17.7503V18.316C22.2111 18.4405 22.3129 18.5423 22.4374 18.5423H24.2478C24.3723 18.5423 24.4741 18.4405 24.4741 18.316V17.7503C24.4741 17.6258 24.3723 17.524 24.2478 17.524ZM19.8901 12.418C19.8066 12.418 19.7217 12.4406 19.644 12.4929L14.6299 15.7701H12.3103C12.1858 15.7701 12.084 15.8719 12.084 15.9964V20.0699C12.084 20.1943 12.1858 20.2962 12.3103 20.2962H14.6299L19.644 23.5733C19.7217 23.6243 19.808 23.6483 19.8901 23.6483C20.1263 23.6483 20.3441 23.4602 20.3441 23.1943V12.872C20.3441 12.6061 20.1263 12.418 19.8901 12.418Z" fill="black"/>
</svg>
