<svg width="152" height="149" viewBox="0 0 152 149" fill="none" xmlns="http://www.w3.org/2000/svg">
<path d="M80.77 148.532L80.6528 146.852C84.0198 146.629 87.3957 146.179 90.6864 145.514L91.0361 147.163C87.6687 147.843 84.2149 148.304 80.77 148.532ZM70.3968 148.383C66.9139 148.077 63.471 147.59 60.1643 146.936L60.5073 145.285C63.7521 145.927 67.1317 146.405 70.5518 146.705L70.3968 148.383ZM101.016 144.436L100.437 142.849C103.609 141.748 106.733 140.421 109.723 138.905L110.519 140.4C107.459 141.951 104.262 143.309 101.016 144.436ZM50.1649 144.33C46.8585 143.248 43.6352 141.956 40.5847 140.488L41.3475 138.979C44.3293 140.412 47.4801 141.676 50.7135 142.733L50.1649 144.33ZM31.6363 135.386C28.7868 133.48 26.0616 131.355 23.5369 129.07L24.711 127.834C27.1736 130.064 29.8322 132.137 32.6122 133.996L31.6363 135.386ZM119.363 135.139L118.366 133.764C121.115 131.866 123.757 129.766 126.217 127.523L127.395 128.753C124.878 131.048 122.176 133.197 119.363 135.139ZM16.4705 121.652C14.323 119.037 12.3432 116.232 10.5869 113.316L12.0752 112.463C13.7895 115.31 15.7216 118.047 17.8173 120.6L16.4705 121.652ZM134.47 121.365L133.131 120.301C135.261 117.749 137.228 115.033 138.979 112.229L140.453 113.106C138.662 115.975 136.649 118.754 134.47 121.365ZM5.97084 104.26C4.6607 101.171 3.54694 97.9479 2.66073 94.6783L4.32947 94.2474C5.19588 97.4446 6.28477 100.597 7.56541 103.615L5.97084 104.26ZM145.229 104.128L143.646 103.456C144.99 100.443 146.132 97.3081 147.04 94.1388L148.702 94.5928C147.773 97.8352 146.605 101.044 145.229 104.128ZM0.669607 84.7569C0.228401 81.429 0.00295156 78.0352 0 74.6711L1.72606 74.6695C1.72901 77.9629 1.9494 81.2843 2.38134 84.5415L0.669607 84.7569ZM150.799 84.6903L149.089 84.4634C149.542 81.2176 149.771 77.9004 149.771 74.6037L149.771 74.4516H151.497L151.497 74.5971C151.497 77.976 151.262 81.3698 150.799 84.6903ZM2.36406 64.7966L0.651484 64.5828C1.08932 61.2368 1.75303 57.8977 2.62448 54.6594L4.29407 55.087C3.44158 58.255 2.79221 61.5221 2.36406 64.7966ZM149.069 64.5952C148.607 61.3371 147.91 58.0827 146.998 54.923L148.659 54.4666C149.593 57.7 150.306 61.0304 150.779 64.3649L149.069 64.5952ZM7.51233 45.7146L5.91606 45.0732C7.23631 41.9454 8.78286 38.8971 10.5123 36.0128L12.0024 36.8631C10.3125 39.6803 8.80182 42.6584 7.51233 45.7146ZM143.588 45.6192C142.241 42.6144 140.667 39.6688 138.908 36.8639L140.381 35.9848C142.18 38.8551 143.791 41.8698 145.169 44.9449L143.588 45.6192ZM133.048 28.8076C130.918 26.2641 128.587 23.8382 126.122 21.5978L127.298 20.3652C129.821 22.6578 132.205 25.1396 134.385 27.7418L133.048 28.8076ZM17.7254 28.7192L16.3761 27.669C18.5324 25.0314 20.9024 22.5332 23.4194 20.2434L24.5968 21.4753C22.1409 23.7091 19.829 26.1461 17.7254 28.7192ZM118.257 15.3683C115.499 13.4724 112.586 11.7464 109.597 10.2378L110.39 8.742C113.448 10.2855 116.43 12.0519 119.252 13.9917L118.257 15.3683ZM32.4833 15.2963L31.504 13.9091C34.3236 12.0144 37.3303 10.2913 40.4406 8.78681L41.2076 10.2958C38.1701 11.7645 35.2351 13.4469 32.4833 15.2963ZM50.5652 6.52089L50.0132 4.92517C53.2184 3.87013 56.5811 2.98736 60.008 2.30236L60.3544 3.95194C56.9971 4.62337 53.7034 5.48764 50.5652 6.52089ZM100.299 6.30956C97.1233 5.21381 93.8381 4.32364 90.5343 3.66249L90.8807 2.01291C94.262 2.68927 97.6243 3.60041 100.874 4.72165L100.299 6.30956ZM70.3955 2.51576L70.2379 0.839037C71.9656 0.684443 73.7418 0.571368 75.5172 0.503111C77.1969 0.483786 78.9377 0.55657 80.6107 0.663882L80.4978 2.34471C78.8619 2.23945 77.1978 2.18641 75.5513 2.18641C73.8396 2.25302 72.0937 2.36446 70.3955 2.51576Z" fill="black"/>
</svg>
